<svg version="1.1" id="Layer_1" xmlns="http://www.w3.org/2000/svg" xmlns:xlink="http://www.w3.org/1999/xlink" x="0px" y="0px"
	 width="100%" viewBox="0 0 64 64" enable-background="new 0 0 64 64" xml:space="preserve">
<path fill="#2AACE5" opacity="1.000000" stroke="none" 
	d="
M41.000000,65.000000 
	C35.977909,65.000000 30.955816,65.000000 25.314716,64.661240 
	C15.674762,62.431732 10.566590,55.569920 5.549843,48.811989 
	C9.788824,45.261738 14.053583,46.850208 17.772015,48.501648 
	C23.462191,51.028793 28.744431,52.082108 34.452614,48.014183 
	C38.812153,45.565941 44.391056,45.575939 47.935463,39.740768 
	C41.990810,40.311802 37.497478,40.743423 32.698242,41.185318 
	C31.598141,41.811317 30.803940,42.427044 30.004654,42.763142 
	C29.989176,42.297348 29.978786,42.111187 29.977068,41.577660 
	C29.005518,40.429420 28.025299,39.628551 27.203560,38.661804 
	C27.592941,38.294468 27.836164,38.109184 28.494589,37.970432 
	C35.025311,40.101151 40.107056,38.450401 44.604496,33.945141 
	C49.218102,29.323507 50.059326,24.016930 48.474976,18.092709 
	C54.200890,23.109396 59.600445,28.054697 65.000000,33.000000 
	C65.000000,35.370556 65.000000,37.741116 64.662209,40.709877 
	C62.499851,48.639088 58.564640,54.659569 52.389866,58.920135 
	C48.870453,61.348515 44.814404,62.999149 41.000000,65.000000 
z"/>
<path fill="#44C4FC" opacity="1.000000" stroke="none" 
	d="
M28.091717,37.940086 
	C27.836164,38.109184 27.592941,38.294468 26.802902,38.713287 
	C17.712040,34.811756 9.973867,39.081322 1.781664,41.137486 
	C1.352755,41.036057 1.176378,41.018028 1.000000,41.000000 
	C1.000000,35.977909 1.000000,30.955816 1.325860,25.295679 
	C2.767585,21.942223 3.653641,19.102579 5.041929,16.534433 
	C9.399658,8.473222 16.811630,4.208648 25.000000,1.000000 
	C30.022093,1.000000 35.044186,1.000000 40.702835,1.324920 
	C46.170677,4.544603 51.744045,6.691056 55.627209,10.541903 
	C59.611992,14.493525 61.944420,20.111374 65.000000,25.000000 
	C65.000000,27.370558 65.000000,29.741114 65.000000,32.555836 
	C59.600445,28.054697 54.200890,23.109396 48.314934,17.798267 
	C46.579445,15.922281 45.330357,14.412121 43.856091,12.625237 
	C38.010979,8.570648 32.063557,7.606489 26.052067,11.082628 
	C21.253050,13.857657 19.160391,18.613615 19.157036,23.936975 
	C19.155760,25.964287 20.911070,27.992701 21.837940,30.307425 
	C22.514021,31.770514 23.217978,32.946789 24.080751,34.410568 
	C25.173977,35.202450 26.108387,35.706829 27.175632,36.427433 
	C27.569550,37.075802 27.830633,37.507942 28.091717,37.940086 
z"/>
<path fill="#FFFFFF" opacity="1.000000" stroke="none" 
	d="
M1.000000,41.468693 
	C1.176378,41.018028 1.352755,41.036057 1.796051,41.500660 
	C3.118239,44.298107 4.173511,46.648979 5.228782,48.999855 
	C10.566590,55.569920 15.674762,62.431732 24.847855,64.661240 
	C17.073666,65.000000 9.147330,65.000000 1.000000,65.000000 
	C1.000000,57.313869 1.000000,49.625626 1.000000,41.468693 
z"/>
<path fill="#FFFFFF" opacity="1.000000" stroke="none" 
	d="
M65.000000,24.531307 
	C61.944420,20.111374 59.611992,14.493525 55.627209,10.541903 
	C51.744045,6.691056 46.170677,4.544603 41.169693,1.324920 
	C48.926334,1.000000 56.852673,1.000000 65.000000,1.000000 
	C65.000000,8.686132 65.000000,16.374374 65.000000,24.531307 
z"/>
<path fill="#FFFFFF" opacity="1.000000" stroke="none" 
	d="
M41.468693,65.000000 
	C44.814404,62.999149 48.870453,61.348515 52.389866,58.920135 
	C58.564640,54.659569 62.499851,48.639088 64.662209,41.154037 
	C65.000000,48.926334 65.000000,56.852673 65.000000,65.000000 
	C57.313869,65.000000 49.625626,65.000000 41.468693,65.000000 
z"/>
<path fill="#FFFFFF" opacity="1.000000" stroke="none" 
	d="
M24.531307,1.000000 
	C16.811630,4.208648 9.399658,8.473222 5.041929,16.534433 
	C3.653641,19.102579 2.767585,21.942223 1.325860,24.828817 
	C1.000000,17.073662 1.000000,9.147325 1.000000,1.000000 
	C8.686132,1.000000 16.374374,1.000000 24.531307,1.000000 
z"/>
<path fill="#FDD080" opacity="1.000000" stroke="none" 
	d="
M5.549843,48.811989 
	C4.173511,46.648979 3.118239,44.298107 2.048581,41.584057 
	C9.973867,39.081322 17.712040,34.811756 26.644423,38.879162 
	C28.025299,39.628551 29.005518,40.429420 29.646940,41.651016 
	C28.174646,42.439060 27.041149,42.806381 25.907652,43.173706 
	C26.006353,43.503651 26.105055,43.833599 26.203756,44.163544 
	C27.472416,43.789955 28.741076,43.416363 30.009739,43.042770 
	C30.803940,42.427044 31.598141,41.811317 32.697449,41.589546 
	C33.362495,44.003963 33.722439,46.024418 34.082378,48.044876 
	C28.744431,52.082108 23.462191,51.028793 17.772015,48.501648 
	C14.053583,46.850208 9.788824,45.261738 5.549843,48.811989 
z"/>
<path fill="#BADDFA" opacity="1.000000" stroke="none" 
	d="
M44.081268,12.901961 
	C45.330357,14.412121 46.579445,15.922281 47.988575,17.726883 
	C50.059326,24.016930 49.218102,29.323507 44.604496,33.945141 
	C40.107056,38.450401 35.025311,40.101151 28.494591,37.970432 
	C27.830633,37.507942 27.569550,37.075802 27.474493,36.258003 
	C31.088409,32.860832 33.350395,28.611052 39.218979,28.640808 
	C43.508747,28.662558 45.485424,23.804676 43.177296,18.200769 
	C41.689758,19.415716 40.913601,21.346144 39.561344,22.702000 
	C39.063122,23.201548 37.205765,22.345572 36.138573,21.815529 
	C38.899635,18.649446 41.490452,15.775704 44.081268,12.901961 
z"/>
<path fill="#FEC777" opacity="1.000000" stroke="none" 
	d="
M34.452614,48.014183 
	C33.722439,46.024418 33.362495,44.003963 33.003349,41.579277 
	C37.497478,40.743423 41.990810,40.311802 47.935463,39.740768 
	C44.391056,45.575939 38.812153,45.565941 34.452614,48.014183 
z"/>
<path fill="#39AEDE" opacity="1.000000" stroke="none" 
	d="
M30.004652,42.763142 
	C28.741076,43.416363 27.472416,43.789955 26.203756,44.163544 
	C26.105055,43.833599 26.006353,43.503651 25.907652,43.173706 
	C27.041149,42.806381 28.174646,42.439060 29.638271,41.998383 
	C29.978786,42.111187 29.989176,42.297348 30.004652,42.763142 
z"/>
<path fill="#E0F0FC" opacity="1.000000" stroke="none" 
	d="
M43.856091,12.625238 
	C41.490452,15.775704 38.899635,18.649446 35.905869,21.762047 
	C35.502926,22.000904 35.039024,21.886961 34.907448,21.580368 
	C30.106562,16.711498 38.020493,16.422773 37.351303,13.176686 
	C33.577911,12.322583 29.815775,14.138472 29.519661,17.430056 
	C28.994928,23.262939 24.934624,26.172743 21.865814,30.020611 
	C20.911070,27.992701 19.155760,25.964287 19.157036,23.936975 
	C19.160391,18.613615 21.253050,13.857657 26.052067,11.082628 
	C32.063557,7.606489 38.010979,8.570648 43.856091,12.625238 
z"/>
<path fill="#293693" opacity="1.000000" stroke="none" 
	d="
M35.039024,21.886961 
	C35.039024,21.886961 35.502926,22.000904 35.735626,22.054386 
	C37.205765,22.345572 39.063122,23.201548 39.561344,22.702000 
	C40.913601,21.346144 41.689758,19.415716 43.177296,18.200769 
	C45.485424,23.804676 43.508747,28.662558 39.218979,28.640808 
	C33.350395,28.611052 31.088409,32.860832 27.341660,36.041779 
	C26.108387,35.706829 25.173977,35.202450 24.259724,34.119003 
	C27.866262,29.655611 31.452642,25.771286 35.039024,21.886961 
z"/>
<path fill="#32419F" opacity="1.000000" stroke="none" 
	d="
M34.907448,21.580368 
	C31.452642,25.771286 27.866262,29.655611 24.100908,33.831497 
	C23.217978,32.946789 22.514021,31.770514 21.837940,30.307425 
	C24.934624,26.172743 28.994928,23.262939 29.519661,17.430056 
	C29.815775,14.138472 33.577911,12.322583 37.351303,13.176686 
	C38.020493,16.422773 30.106562,16.711498 34.907448,21.580368 
z"/>
</svg>